<?xml version="1.0" encoding="utf-8"?>
<!-- Generator: Adobe Illustrator 26.0.2, SVG Export Plug-In . SVG Version: 6.00 Build 0)  -->
<svg version="1.1" id="图层_1" xmlns="http://www.w3.org/2000/svg" xmlns:xlink="http://www.w3.org/1999/xlink" x="0px" y="0px"
	 viewBox="0 0 1024 1024" style="enable-background:new 0 0 1024 1024;" xml:space="preserve">
<style type="text/css">
	.st0{fill:#CE82A9;}
	.st1{fill:#EE8F8B;}
	.st2{fill:#FAA66A;}
	.st3{fill:#FCBF4C;}
	.st4{fill:#FBA222;}
	.st5{fill:#FE7C1A;}
	.st6{fill:#FE5737;}
	.st7{fill:#FC3C31;}
	.st8{fill:#E5212B;}
</style>
<path class="st0" d="M476.4,328.4c50.5,25,71,44.5,104.5,53.5s59,6.5,76.5-6.5s17.5-29.5,17.5-29.5l4.5-1.1
	c-71-86.8-218.3-110.5-309.7-23.4l23.7-5.4C393.4,315.9,425.9,303.4,476.4,328.4z"/>
<path class="st1" d="M409.4,493.4c19.9-8.5,38.6-23.3,58.8-37.8c-43.8-27.6-103.7-37-167.3,1.2c-2.9-0.4-5.7-0.6-8.5-0.8
	c2,5.3,7.4,17.5,16.5,27.4C320.9,496.4,358.9,514.9,409.4,493.4z"/>
<path class="st1" d="M310.4,417.4c82.3-38.8,137.7-1.8,167.7,31.3c28.4-19.5,60.3-36.4,102.8-33.7c78.5,5,121.5,82,156.5,73
	c26.9-6.9,33.1-23.5,34.6-30.9c-15.5-5.1-32.8-9-52.1-11.2c-2.8-39.1-17.7-73.3-40.5-101.1l-4.5,1.1c0,0,0,16.5-17.5,29.5
	s-43,15.5-76.5,6.5s-54-28.5-104.5-53.5s-83-12.5-83-12.5l-23.7,5.4C345,344.9,324.4,376.6,310.4,417.4z"/>
<path class="st2" d="M241.5,463.8l0.4,1.2c0,0,7,54,49.5,84.5s119-14.5,155-33c20.2-10.4,37-23.1,54.9-33.5
	c-9.6-10.1-20.7-19.5-33.1-27.3c-20.1,14.5-38.8,29.3-58.8,37.8c-50.5,21.5-88.5,3-100.5-10c-9.1-9.9-14.5-22.1-16.5-27.4
	C274.5,455,257.4,457.8,241.5,463.8z"/>
<path class="st2" d="M737.4,487.9c-35,9-78-68-156.5-73c-42.5-2.7-74.4,14.2-102.8,33.7c12.5,13.8,20.6,27,24.3,33.6
	c13.7-7.9,28-14.4,44.9-17.4c30.6-5.4,44.1-4.5,70.1,6.4c1.3-0.1,2.5-0.2,3.8-0.3c1.9-0.1,3.7-0.1,5.6-0.1c1.9,0,3.7,0,5.6,0.1
	c1.9,0.1,3.7,0.2,5.6,0.4c1.9,0.2,3.7,0.4,5.6,0.7c1.8,0.3,3.7,0.6,5.5,1c1.8,0.4,3.6,0.8,5.5,1.2c1.8,0.5,3.6,1,5.4,1.5
	c1.8,0.5,3.6,1.1,5.3,1.8c1.8,0.6,3.5,1.3,5.2,2c1.7,0.7,3.4,1.5,5.1,2.3c1.7,0.8,3.4,1.6,5,2.5c1.6,0.9,3.3,1.8,4.9,2.8
	c1.6,1,3.2,2,4.7,3c1.6,1,3.1,2.1,4.6,3.2c1.5,1.1,3,2.3,4.4,3.4c1.4,1.2,2.9,2.4,4.2,3.7c1.4,1.3,2.7,2.5,4.1,3.9
	c1.3,1.3,2.6,2.7,3.9,4c1.3,1.4,2.5,2.8,3.7,4.2c1.2,1.4,2.3,2.9,3.4,4.4c1.1,1.5,2.2,3,3.2,4.6c1,1.5,2,3.1,3,4.7
	c1,1.6,1.9,3.2,2.8,4.9c0,0.1,0.1,0.2,0.1,0.2c1,0.4,1.9,0.7,2.9,1c16.5,5,45,1.5,56-16c7.6-12.1,12.6-34.4,14.9-47.1
	c-9-4.7-18.7-8.8-29.4-12.3C770.5,464.4,764.3,481,737.4,487.9z"/>
<path class="st3" d="M732.2,541.3c0.7,1.7,1.4,3.5,2,5.2c0.3,0.9,0.6,1.8,1,2.8c2.5,0.3,5,0.4,7.2,0.2c30-2.5,40-9,48.5-22.5
	c5.2-8.2,13.8-33.6,19.9-52.2c-3-1.8-6.2-3.6-9.4-5.3c-2.4,12.7-7.3,35-14.9,47.1c-11,17.5-39.5,21-56,16c-0.9-0.3-1.9-0.6-2.9-1
	c0.8,1.6,1.6,3.2,2.4,4.8C730.7,537.8,731.5,539.5,732.2,541.3z"/>
<path class="st3" d="M501.3,482.9c-17.9,10.4-34.7,23.1-54.9,33.5c-36,18.5-112.5,63.5-155,33s-49.5-84.5-49.5-84.5l-0.4-1.2
	c-17.1,6.4-32.8,16.4-46.4,29c1.5,2.5,3.3,5.4,5.3,8.7c17,28.5,62.5,120.5,138.5,115s68-17.5,137.5-67
	c23.1-18.7,44.1-30.3,62.9-37.3c1-1.3,2.1-2.5,3.2-3.7c1.3-1.4,2.5-2.7,3.9-4c1.3-1.3,2.7-2.6,4.1-3.9c1.4-1.3,2.8-2.5,4.2-3.7
	c1.4-1.2,2.9-2.3,4.4-3.4c1.5-1.1,3-2.2,4.6-3.2s3.1-2,4.7-3c1.6-1,3.2-1.9,4.9-2.8c1.6-0.9,3.3-1.7,5-2.5c1.7-0.8,3.4-1.6,5.1-2.3
	c1.7-0.7,3.5-1.4,5.2-2c1.8-0.6,3.5-1.2,5.3-1.8c1.8-0.5,3.6-1,5.4-1.5c1.8-0.5,3.6-0.9,5.5-1.2c1.8-0.4,3.7-0.7,5.5-1
	c1.8-0.3,3.7-0.5,5.5-0.7c0.6-0.1,1.2-0.1,1.8-0.2c-26-10.9-39.5-11.8-70.1-6.4c-16.9,3-31.2,9.5-44.9,17.4c1.6,2.9,2.4,4.6,2.4,4.6
	C503.7,485.5,502.5,484.2,501.3,482.9z"/>
<path class="st4" d="M645.2,547.7c-0.8-0.4-1.6-0.8-2.5-1.1c-1.3-0.5-2.5-1-3.8-1.4c-1.3-0.4-2.6-0.7-3.9-1c-1.3-0.3-2.7-0.5-4-0.6
	c-1.4-0.1-2.7-0.2-4.1-0.2c-1.4,0-2.7,0.1-4.1,0.2c-1.4,0.1-2.7,0.3-4,0.6c-1.3,0.3-2.6,0.6-3.9,1c-0.9,0.3-1.9,0.6-2.8,1
	C623.9,546,634.9,546.6,645.2,547.7z"/>
<path class="st4" d="M142.5,611c0.3,0,0.6,0,0.9-0.1c42.5,0,119,58.5,214,39.5c50-13.5,97.1-61.3,157.4-86.3c0.1-0.5,0.2-1,0.3-1.5
	c0.4-1.8,0.8-3.6,1.2-5.5c0.5-1.8,1-3.6,1.5-5.4c0.5-1.8,1.1-3.6,1.8-5.3c0.6-1.8,1.3-3.5,2-5.2c0.7-1.7,1.5-3.4,2.3-5.1
	c0.8-1.7,1.6-3.3,2.5-5c0.9-1.6,1.8-3.3,2.8-4.9c1-1.6,2-3.2,3-4.7c1-1.5,2.1-3.1,3.2-4.6c1.1-1.5,2.3-3,3.4-4.4
	c0.1-0.2,0.3-0.3,0.5-0.5c-18.8,7-39.7,18.7-62.9,37.3c-69.5,49.5-61.5,61.5-137.5,67s-121.5-86.5-138.5-115c-2-3.3-3.7-6.2-5.3-8.7
	C162.9,522.5,142.4,566.7,142.5,611z"/>
<path class="st4" d="M737.5,557.2c0.5,1.8,0.9,3.6,1.2,5.5c0.3,1.6,0.6,3.1,0.8,4.7c3.6,0.4,6.9,0.4,9.9,0.1c29-3.5,41.5-20.5,50-35
	c4.9-8.3,13.2-33,19.4-52.6c-2.6-1.8-5.3-3.5-8-5.2c-6,18.6-14.7,44-19.9,52.2c-8.5,13.5-18.5,20-48.5,22.5
	c-2.3,0.2-4.7,0.1-7.2-0.2c0.3,0.8,0.5,1.7,0.8,2.5C736.5,553.6,737,555.4,737.5,557.2z"/>
<path class="st5" d="M205.4,725.2c5.2-3.8,11.2-7.5,18.1-10.7c30.5-14.5,68-19,110.5-23s89-22.5,111-37.5s10-8,50.5-38.5
	c6.5-4.2,12.9-7.8,19.2-11c-0.1-0.4-0.2-0.9-0.2-1.3c-0.5-3-0.9-6.1-1.1-9.1c-0.2-3.1-0.4-6.1-0.4-9.2c0-1.9,0-3.7,0.1-5.6
	c0.1-1.9,0.2-3.7,0.4-5.6c0.2-1.9,0.4-3.7,0.7-5.5c0.2-1.3,0.4-2.7,0.7-4c-60.3,25-107.4,72.8-157.4,86.3
	c-95,19-171.5-39.5-214-39.5c-0.3,0-0.6,0-0.9,0.1C142.7,652.8,161.1,694.9,205.4,725.2z"/>
<path class="st5" d="M749.4,567.4c-3,0.4-6.3,0.3-9.9-0.1c0,0.3,0.1,0.5,0.1,0.8c0.3,1.8,0.5,3.7,0.7,5.5c0.2,1.9,0.3,3.7,0.4,5.6
	c0.1,1.9,0.1,3.7,0.1,5.6c0,3.1-0.1,6.1-0.4,9.2c-0.1,1.2-0.2,2.4-0.4,3.6c29.1-7.9,46.7-30.3,62.2-51.7c18.5-25.5,16-42.5,20-60.5
	c0.2-0.8,0.4-1.7,0.6-2.5c-1.4-1-2.8-2-4.3-3c-6.2,19.6-14.5,44.3-19.4,52.6C790.9,546.9,778.4,563.9,749.4,567.4z"/>
<path class="st5" d="M607.4,548.3c-1.2,0.6-2.4,1.3-3.5,2.1c-1.1,0.8-2.2,1.6-3.3,2.4c-1,0.9-2.1,1.8-3,2.7c-1,1-1.9,2-2.7,3
	c-0.9,1-1.7,2.1-2.4,3.3c-0.8,1.1-1.5,2.3-2.1,3.5c-0.6,1.2-1.2,2.4-1.7,3.7c-0.5,1.3-1,2.5-1.4,3.8c-0.4,1.3-0.7,2.6-1,3.9
	c-0.3,1.3-0.5,2.7-0.6,4c-0.1,1.3-0.2,2.7-0.2,4.1c0,0.2,0,0.4,0,0.6c0.3,0,0.4,0,0.4,0s43.5-4,69.5-1c4.8,0.6,9,1.6,12.9,2.8
	c0-0.8,0.1-1.6,0.1-2.3c0-1.4-0.1-2.7-0.2-4.1c-0.1-1.4-0.3-2.7-0.6-4s-0.6-2.6-1-3.9c-0.4-1.3-0.9-2.6-1.4-3.8
	c-0.5-1.3-1.1-2.5-1.7-3.7c-0.6-1.2-1.3-2.4-2.1-3.5c-0.8-1.1-1.6-2.2-2.4-3.3c-0.9-1-1.8-2.1-2.7-3c-1-1-2-1.9-3-2.7
	c-1-0.9-2.1-1.7-3.3-2.4c-1.1-0.8-2.3-1.5-3.5-2.1c-0.4-0.2-0.8-0.4-1.2-0.6c-10.3-1.1-21.4-1.7-33.1-1.5c-0.4,0.1-0.7,0.3-1.1,0.4
	C609.8,547.1,608.6,547.7,607.4,548.3z"/>
<path class="st6" d="M284.9,745.9c29.5-26.5,90-30,90-30c34.5-1.5,48.5-4,79.5-14.5c29-9.8,37.4-34.5,72.8-61.4
	c-0.4-0.7-0.8-1.5-1.2-2.2c-1.4-2.7-2.8-5.5-4-8.3c-1.2-2.8-2.3-5.7-3.3-8.6c-1-2.9-1.8-5.8-2.6-8.8c-0.6-2.5-1.1-5.1-1.6-7.6
	c-6.3,3.1-12.7,6.7-19.2,11c-40.5,30.5-28.5,23.5-50.5,38.5s-68.5,33.5-111,37.5s-80,8.5-110.5,23c-6.9,3.3-12.9,7-18.1,10.7
	c19.1,13.1,42.9,23.9,72.1,31.7L284.9,745.9z"/>
<path class="st6" d="M586.3,592.9c0.3,1.3,0.6,2.6,1,3.9c0.4,1.3,0.9,2.6,1.4,3.8c0.5,1.3,1.1,2.5,1.7,3.7c0.6,1.1,1.2,2.1,1.9,3.1
	c8.3-1.2,16.1-1.1,25.2-1.1c12.5,0,25.7,4,36.8,9.6c0.7-0.6,1.4-1.2,2-1.9c1-1,1.9-2,2.7-3c0.9-1,1.7-2.1,2.4-3.3
	c0.8-1.1,1.5-2.3,2.1-3.5c0.6-1.2,1.2-2.4,1.7-3.7c0.5-1.3,1-2.5,1.4-3.8c0.4-1.3,0.7-2.6,1-3.9c0.3-1.3,0.5-2.7,0.6-4
	c0.1-0.6,0.1-1.1,0.1-1.7c-3.8-1.2-8-2.2-12.9-2.8c-26-3-69.5,1-69.5,1s-0.2,0-0.4,0c0,1.2,0.1,2.3,0.2,3.5
	C585.8,590.3,586,591.6,586.3,592.9z"/>
<path class="st6" d="M737.6,612.1c-0.7,3-1.6,5.9-2.6,8.8c-1,2.9-2.1,5.8-3.3,8.6c-1.2,2.8-2.5,5.6-4,8.3c-1.4,2.7-3,5.3-4.6,7.9
	c-1.6,2.6-3.4,5.1-5.2,7.5l0,0c0,0-3.1,4.1-3.6,4.6l-1.9,2.2c9,3.8,18.9,6.1,28.4,5.4c21.5,0,50-7,75.5-30c20.5-22,25.5-29,38-81
	c2.4-9.8,5.6-18.2,9.3-25.6c-9.5-17.2-22.9-32.9-40.7-46c-0.2,0.8-0.5,1.7-0.6,2.5c-4,18-1.5,35-20,60.5
	c-15.5,21.4-33.1,43.8-62.2,51.7c-0.2,1.9-0.4,3.7-0.7,5.5C739,606.1,738.4,609.1,737.6,612.1z"/>
<path class="st7" d="M497.1,757.4c18.7-14.9,38.3-47.2,49.9-61.9c3.3-4.2,7.4-9.2,12.3-14.3l-19.7-23.2c-0.5-0.6-3.6-4.7-3.6-4.7
	c-1.9-2.4-3.6-4.9-5.2-7.5c-1.2-1.9-2.3-3.8-3.4-5.7c-35.4,26.9-43.8,51.6-72.8,61.4c-31,10.5-45,13-79.5,14.5c0,0-60.5,3.5-90,30
	l-7.4,10.9c0.6,0.2,1.3,0.3,1.9,0.5H497.1z"/>
<path class="st7" d="M592.2,607.5c0.1,0.1,0.1,0.2,0.2,0.4c0.8,1.1,1.6,2.2,2.4,3.3c0.9,1,1.8,2.1,2.7,3c1,1,2,1.9,3,2.7
	c1.1,0.9,2.1,1.7,3.3,2.4c1.1,0.8,2.3,1.5,3.5,2.1c1.2,0.6,2.4,1.2,3.7,1.7c1.3,0.5,2.5,1,3.8,1.4c1.3,0.4,2.6,0.7,3.9,1
	c1.3,0.3,2.7,0.5,4,0.6c1.4,0.1,2.7,0.2,4.1,0.2c1.4,0,2.7-0.1,4.1-0.2c1.3-0.1,2.7-0.3,4-0.6c1.3-0.3,2.6-0.6,3.9-1
	c1.3-0.4,2.6-0.9,3.8-1.4c1.3-0.5,2.5-1.1,3.7-1.7s2.4-1.3,3.5-2.1c1.1-0.8,2.2-1.6,3.3-2.4c0.3-0.3,0.7-0.6,1-0.9
	c-11.1-5.5-24.3-9.6-36.8-9.6C608.3,606.4,600.5,606.3,592.2,607.5z"/>
<path class="st7" d="M846.9,699.9c0.5-0.3,1-0.5,1.5-0.7c35.5-47.8,45.1-116.3,15.3-170.3c-3.7,7.3-7,15.8-9.3,25.6
	c-12.5,52-17.5,59-38,81c-25.5,23-54,30-75.5,30c-9.5,0.7-19.4-1.6-28.4-5.4L697,678.3C754.8,718.3,835.2,705.8,846.9,699.9z"/>
<path class="st8" d="M497.1,757.4h126.8l-64.7-76.2c-4.9,5.1-9,10.1-12.3,14.3C535.3,710.2,515.7,742.4,497.1,757.4z"/>
<path class="st8" d="M736.4,757.4c47.5,0,86.5-23.7,112-58.2c-0.5,0.2-1,0.5-1.5,0.7c-11.7,5.9-92.2,18.4-149.9-21.6l-67,79H736.4z"
	/>
</svg>
